<?xml version="1.0" encoding="utf-8"?>
<!-- Generator: Adobe Illustrator 24.0.0, SVG Export Plug-In . SVG Version: 6.00 Build 0)  -->
<svg version="1.1" id="Layer_1" xmlns="http://www.w3.org/2000/svg" xmlns:xlink="http://www.w3.org/1999/xlink" x="0px" y="0px"
	 viewBox="0 0 512 512" style="enable-background:new 0 0 512 512;" xml:space="preserve">
<style type="text/css">
	.st0{fill:#00AC47;}
	.st1{fill:#EA4335;}
	.st2{fill:#2684FC;}
	.st3{fill:#0066DA;}
	.st4{fill:#FFBA00;}
	.st5{fill:#00832D;}
	.st6{fill:#5F6368;}
</style>
<g>
	<g>
		<g>
			<path class="st0" d="M83,268.6v-2.3v-3.1v-14.7v-3.1l2.4-5l12-9.5c1.6-1.3,4-0.2,4,1.9v45.6c0,2.1-2.5,3.2-4.1,1.9L83,268.6z"/>
			<path class="st1" d="M43.2,223.9l-19.4,19.4h19.4V223.9z"/>
			<path class="st2" d="M43.2,243.4H23.8v25.3h19.4C43.2,268.7,43.2,243.4,43.2,243.4z"/>
			<path class="st3" d="M23.8,268.6v13c0,3.6,2.9,6.5,6.5,6.5h13v-19.4H23.8V268.6z"/>
			<path class="st4" d="M85.5,230.3c0-3.5-2.9-6.4-6.3-6.4H66.5H43.2v19.4H67V256l18.5-0.6V230.3z"/>
			<path class="st0" d="M67,268.6H43.2V288h23.2h12.7c3.5,0,6.3-2.9,6.3-6.4V256H67V268.6z"/>
			<path class="st5" d="M85.5,240.5v30.1L67,256L85.5,240.5z"/>
			<g>
				<path class="st6" d="M358.1,279.5h-5.7V235h5.7l15.5,27.1h0.2l15.5-27.1h5.7v44.5h-5.7v-26.4l0.2-7.5h-0.2L375.4,270H372
					l-13.9-24.4h-0.2l0.2,7.5V279.5z"/>
				<path class="st6" d="M416.7,280.5c-4.5,0-8.2-1.5-11.1-4.6s-4.4-6.9-4.4-11.6c0-4.6,1.4-8.5,4.2-11.6c2.8-3.1,6.4-4.7,10.8-4.7
					c4.5,0,8.1,1.5,10.8,4.4c2.7,2.9,4,7,4,12.3l-0.1,0.6H407c0.1,3,1.1,5.4,3,7.2s4.2,2.7,6.8,2.7c3.6,0,6.5-1.8,8.6-5.5l5.1,2.5
					c-1.4,2.6-3.3,4.6-5.7,6C422.5,279.8,419.8,280.5,416.7,280.5L416.7,280.5z M407.6,260.6H425c-0.2-2.1-1-3.9-2.6-5.2
					c-1.5-1.4-3.6-2.1-6.2-2.1c-2.2,0-4,0.7-5.6,2C409.1,256.6,408.1,258.4,407.6,260.6L407.6,260.6z"/>
				<path class="st6" d="M450.3,280.5c-4.5,0-8.2-1.5-11.1-4.6s-4.4-6.9-4.4-11.6c0-4.6,1.4-8.5,4.2-11.6c2.8-3.1,6.4-4.7,10.8-4.7
					c4.5,0,8.1,1.5,10.8,4.4c2.7,2.9,4,7,4,12.3l-0.1,0.6h-23.9c0.1,3,1.1,5.4,3,7.2c1.9,1.8,4.2,2.7,6.8,2.7c3.6,0,6.5-1.8,8.6-5.5
					l5.1,2.5c-1.4,2.6-3.3,4.6-5.7,6C456.2,279.8,453.4,280.5,450.3,280.5L450.3,280.5z M441.2,260.6h17.5c-0.2-2.1-1-3.9-2.6-5.2
					c-1.5-1.4-3.6-2.1-6.2-2.1c-2.2,0-4,0.7-5.6,2C442.7,256.6,441.7,258.4,441.2,260.6L441.2,260.6z"/>
				<path class="st6" d="M481.2,280c-2.5,0-4.6-0.8-6.2-2.3s-2.4-3.7-2.5-6.4v-17h-5.3V249h5.3v-9.3h5.7v9.3h7.5v5.2h-7.5v15.2
					c0,2,0.4,3.4,1.2,4.2c0.8,0.7,1.7,1.1,2.7,1.1c0.5,0,0.9,0,1.3-0.1c0.5-0.1,0.9-0.3,1.2-0.4l1.8,5.1
					C484.9,279.7,483.1,280,481.2,280z"/>
				<path class="st6" d="M163.8,260.7v-6.8h22.8c0.2,1.2,0.4,2.6,0.4,4.2c0,5.1-1.4,11.4-5.9,15.9c-4.4,4.6-10,7-17.4,7
					c-13.7,0-25.2-11.2-25.2-24.9c0-13.7,11.5-24.9,25.2-24.9c7.6,0,13,3,17,6.9l-4.8,4.8c-2.9-2.7-6.9-4.9-12.3-4.9
					c-10,0-17.8,8.1-17.8,18.1c0,10,7.8,18.1,17.8,18.1c6.5,0,10.2-2.6,12.6-5c1.9-1.9,3.2-4.7,3.7-8.5H163.8z"/>
				<path class="st6" d="M221.6,264.9c0,9.2-7.2,16-16.1,16s-16.1-6.8-16.1-16c0-9.3,7.2-16,16.1-16
					C214.3,248.9,221.6,255.6,221.6,264.9z M214.5,264.9c0-5.8-4.2-9.7-9-9.7c-4.9,0-9,3.9-9,9.7c0,5.7,4.2,9.7,9,9.7
					S214.5,270.6,214.5,264.9L214.5,264.9z"/>
				<path class="st6" d="M256.6,264.9c0,9.2-7.2,16-16.1,16s-16.1-6.8-16.1-16c0-9.3,7.2-16,16.1-16
					C249.4,248.9,256.6,255.6,256.6,264.9z M249.6,264.9c0-5.8-4.2-9.7-9-9.7c-4.9,0-9,3.9-9,9.7c0,5.7,4.2,9.7,9,9.7
					S249.6,270.6,249.6,264.9L249.6,264.9z"/>
				<path class="st6" d="M290.3,249.8v28.8c0,11.8-7,16.7-15.2,16.7c-7.8,0-12.4-5.2-14.2-9.5l6.1-2.5c1.1,2.6,3.8,5.7,8.1,5.7
					c5.3,0,8.6-3.3,8.6-9.4v-2.3h-0.2c-1.6,1.9-4.6,3.6-8.4,3.6c-8,0-15.4-7-15.4-16s7.3-16.1,15.4-16.1c3.8,0,6.9,1.7,8.4,3.6h0.2
					v-2.6L290.3,249.8L290.3,249.8z M284.1,264.9c0-5.6-3.8-9.8-8.6-9.8c-4.9,0-8.9,4.1-8.9,9.8c0,5.6,4.1,9.7,8.9,9.7
					S284.1,270.5,284.1,264.9z"/>
				<path class="st6" d="M302.2,233v46.9h-7V233H302.2z"/>
				<path class="st6" d="M329.4,270.2l5.5,3.6c-1.8,2.6-6,7.1-13.3,7.1c-9.1,0-15.9-7-15.9-16c0-9.5,6.9-16,15.1-16
					c8.3,0,12.4,6.6,13.7,10.2l0.7,1.8l-21.4,8.9c1.6,3.2,4.2,4.9,7.8,4.9C325,274.6,327.5,272.8,329.4,270.2z M312.5,264.4
					l14.3-5.9c-0.8-2-3.2-3.4-5.9-3.4C317.3,255,312.4,258.2,312.5,264.4z"/>
			</g>
		</g>
	</g>
</g>
</svg>
